# 3ds Max Wavefront OBJ Exporter v0.97b - (c)2007 guruware
# File Created: 19.11.2013 17:15:43

mtllib TriangleBlock.mtl

#
# object TriangleBlock
#

v  21.0365 0.0000 12.1454
v  21.0365 9.0000 12.1454
v  15.7774 9.0000 3.0363
v  15.7774 0.0000 3.0363
v  10.5182 9.0000 -6.0727
v  10.5182 0.0000 -6.0727
v  5.2591 9.0000 -15.1818
v  5.2591 0.0000 -15.1818
v  -0.0000 9.0000 -24.2909
v  -0.0000 -0.0000 -24.2909
v  -5.2591 9.0000 -15.1818
v  -5.2591 -0.0000 -15.1818
v  -10.5182 9.0000 -6.0727
v  -10.5182 -0.0000 -6.0727
v  -15.7774 9.0000 3.0364
v  -15.7773 -0.0000 3.0364
v  -21.0365 9.0000 12.1455
v  -21.0365 -0.0000 12.1455
v  -10.5182 9.0000 12.1455
v  -10.5182 -0.0000 12.1455
v  0.0000 9.0000 12.1455
v  0.0000 0.0000 12.1455
v  10.5183 9.0000 12.1455
v  10.5183 0.0000 12.1455
v  -0.0000 -0.0000 -48.5817
v  -0.0000 9.0000 -48.5817
v  5.2591 9.0000 -39.4726
v  5.2591 0.0000 -39.4726
v  10.5183 9.0000 -30.3636
v  10.5183 0.0000 -30.3636
v  15.7774 9.0000 -21.2545
v  15.7774 0.0000 -21.2545
v  21.0365 9.0000 -12.1454
v  21.0365 0.0000 -12.1454
v  26.2956 9.0000 -3.0364
v  26.2956 0.0000 -3.0364
v  31.5548 9.0000 6.0727
v  31.5548 0.0000 6.0727
v  36.8139 9.0000 15.1818
v  36.8139 0.0000 15.1818
v  42.0730 9.0000 24.2908
v  42.0730 0.0000 24.2908
v  -42.0730 -0.0000 24.2909
v  -42.0730 9.0000 24.2909
v  -36.8139 9.0000 15.1818
v  -36.8139 -0.0000 15.1818
v  -31.5548 9.0000 6.0727
v  -31.5547 -0.0000 6.0727
v  -26.2956 9.0000 -3.0363
v  -26.2956 -0.0000 -3.0363
v  -21.0365 9.0000 -12.1454
v  -21.0365 -0.0000 -12.1454
v  -15.7774 9.0000 -21.2545
v  -15.7774 -0.0000 -21.2545
v  -10.5183 9.0000 -30.3636
v  -10.5183 -0.0000 -30.3636
v  -5.2591 9.0000 -39.4726
v  -5.2591 -0.0000 -39.4726
v  31.5548 9.0000 24.2909
v  31.5548 0.0000 24.2909
v  21.0365 9.0000 24.2909
v  21.0365 0.0000 24.2909
v  10.5182 9.0000 24.2909
v  10.5183 0.0000 24.2909
v  -0.0000 9.0000 24.2909
v  -0.0000 0.0000 24.2909
v  -10.5183 9.0000 24.2909
v  -10.5182 0.0000 24.2909
v  -21.0365 9.0000 24.2909
v  -21.0365 -0.0000 24.2909
v  -31.5548 9.0000 24.2909
v  -31.5547 -0.0000 24.2909
v  31.6852 13.0000 18.2934
v  42.9145 9.3001 24.7766
v  0.0000 9.3001 -49.5534
v  -0.0000 13.0000 -36.5870
v  -42.9145 9.3001 24.7767
v  -31.6852 13.0000 18.2934
v  -20.4054 9.3001 11.7810
v  -0.0000 9.3001 -23.5622
v  20.4054 9.3001 11.7810
v  20.4054 9.0000 11.7810
v  -0.0000 9.0000 -23.5622
v  -20.4054 9.0000 11.7810
v  -0.0000 9.0000 -49.5534
v  42.9145 9.0000 24.7766
v  -42.9145 9.0000 24.7767
# 87 vertices

vn -0.8660 -0.0000 0.5000
vn 0.8660 0.0000 0.5000
vn 0.0000 -0.0000 -1.0000
vn -0.0000 -0.0000 -1.0000
vn 0.8660 0.0000 -0.5000
vn -0.8660 -0.0000 -0.5000
vn 0.0000 0.0000 1.0000
vn 0.4292 0.8685 -0.2478
vn 0.0000 0.8685 0.4957
vn 0.4278 0.8695 0.2470
vn -0.4278 0.8695 0.2470
vn -0.0000 0.8695 -0.4940
vn -0.4292 0.8685 -0.2478
vn -0.0000 0.0000 -1.0000
vn 0.8660 -0.0000 -0.5000
vn 0.0000 -0.0000 1.0000
vn 0.0000 -1.0000 -0.0000
# 17 vertex normals

vt 1.0000 0.0000 0.0000
vt 1.0000 1.0000 0.0000
vt 0.0000 1.0000 0.0000
vt 0.0000 0.0000 0.0000
vt 0.8598 0.0726 0.0000
vt 0.9880 -0.0014 0.0000
vt 0.0080 -0.0014 0.0000
vt 0.1362 0.0726 0.0000
vt 0.9899 -0.0022 0.0000
vt 0.0099 -0.0024 0.0000
vt 0.1381 0.0716 0.0000
vt 0.8617 0.0718 0.0000
vt 0.8661 0.0728 0.0000
vt 0.7374 -0.0016 0.0000
vt 0.2714 -0.0018 0.0000
vt 0.1425 0.0725 0.0000
vt 0.2670 -0.0035 0.0000
vt 0.1382 0.0708 0.0000
vt 0.8618 0.0708 0.0000
vt 0.7330 -0.0035 0.0000
vt 0.2683 -0.0016 0.0000
vt 0.1396 0.0728 0.0000
vt 0.8631 0.0725 0.0000
vt 0.7343 -0.0018 0.0000
vt 0.0101 -0.0023 0.0000
vt 0.1383 0.0718 0.0000
vt 0.8619 0.0717 0.0000
vt 0.9901 -0.0024 0.0000
# 28 texture coords

g TriangleBlock
usemtl Material__1722
s 1
f 1/1/1 2/2/1 3/3/1 
f 3/3/1 4/4/1 1/1/1 
usemtl Material__1721
f 4/1/1 3/2/1 5/3/1 
f 5/3/1 6/4/1 4/1/1 
usemtl Material__1720
f 6/1/1 5/2/1 7/3/1 
f 7/3/1 8/4/1 6/1/1 
usemtl Material__1719
f 8/1/1 7/2/1 9/3/1 
f 9/3/1 10/4/1 8/1/1 
usemtl Material__1722
f 10/1/2 9/2/2 11/3/2 
f 11/3/2 12/4/2 10/1/2 
usemtl Material__1721
f 12/1/2 11/2/2 13/3/2 
f 13/3/2 14/4/2 12/1/2 
usemtl Material__1720
f 14/1/2 13/2/2 15/3/2 
f 15/3/2 16/4/2 14/1/2 
usemtl Material__1719
f 16/1/2 15/2/2 17/3/2 
f 17/3/2 18/4/2 16/1/2 
usemtl Material__1722
f 18/1/3 17/2/3 19/3/3 
f 19/3/3 20/4/3 18/1/3 
usemtl Material__1721
f 20/1/3 19/2/3 21/3/4 
f 21/3/4 22/4/4 20/1/3 
usemtl Material__1720
f 22/1/4 21/2/4 23/3/4 
f 23/3/4 24/4/4 22/1/4 
usemtl Material__1719
f 24/1/4 23/2/4 2/3/4 
f 2/3/4 1/4/4 24/1/4 
usemtl Material__1724
f 25/1/5 26/2/5 27/3/5 
f 27/3/5 28/4/5 25/1/5 
usemtl Material__1723
f 28/1/5 27/2/5 29/3/5 
f 29/3/5 30/4/5 28/1/5 
usemtl Material__1722
f 30/1/5 29/2/5 31/3/5 
f 31/3/5 32/4/5 30/1/5 
usemtl Material__1721
f 32/1/5 31/2/5 33/3/5 
f 33/3/5 34/4/5 32/1/5 
usemtl Material__1720
f 34/1/5 33/2/5 35/3/5 
f 35/3/5 36/4/5 34/1/5 
usemtl Material__1719
f 36/1/5 35/2/5 37/3/5 
f 37/3/5 38/4/5 36/1/5 
usemtl Material__1718
f 38/1/5 37/2/5 39/3/5 
f 39/3/5 40/4/5 38/1/5 
usemtl Material__1706
f 40/1/5 39/2/5 41/3/5 
f 41/3/5 42/4/5 40/1/5 
usemtl Material__1724
f 43/1/6 44/2/6 45/3/6 
f 45/3/6 46/4/6 43/1/6 
usemtl Material__1723
f 46/1/6 45/2/6 47/3/6 
f 47/3/6 48/4/6 46/1/6 
usemtl Material__1722
f 48/1/6 47/2/6 49/3/6 
f 49/3/6 50/4/6 48/1/6 
usemtl Material__1721
f 50/1/6 49/2/6 51/3/6 
f 51/3/6 52/4/6 50/1/6 
usemtl Material__1720
f 52/1/6 51/2/6 53/3/6 
f 53/3/6 54/4/6 52/1/6 
usemtl Material__1719
f 54/1/6 53/2/6 55/3/6 
f 55/3/6 56/4/6 54/1/6 
usemtl Material__1718
f 56/1/6 55/2/6 57/3/6 
f 57/3/6 58/4/6 56/1/6 
usemtl Material__1706
f 58/1/6 57/2/6 26/3/6 
f 26/3/6 25/4/6 58/1/6 
usemtl Material__1724
f 42/1/7 41/2/7 59/3/7 
f 59/3/7 60/4/7 42/1/7 
usemtl Material__1723
f 60/1/7 59/2/7 61/3/7 
f 61/3/7 62/4/7 60/1/7 
usemtl Material__1722
f 62/1/7 61/2/7 63/3/7 
f 63/3/7 64/4/7 62/1/7 
usemtl Material__1721
f 64/1/7 63/2/7 65/3/7 
f 65/3/7 66/4/7 64/1/7 
usemtl Material__1720
f 66/1/7 65/2/7 67/3/7 
f 67/3/7 68/4/7 66/1/7 
usemtl Material__1719
f 68/1/7 67/2/7 69/3/7 
f 69/3/7 70/4/7 68/1/7 
usemtl Material__1718
f 70/1/7 69/2/7 71/3/7 
f 71/3/7 72/4/7 70/1/7 
usemtl Material__1706
f 72/1/7 71/2/7 44/3/7 
f 44/3/7 43/4/7 72/1/7 
usemtl MaterialRoof_Brown
s off
f 73/5/8 74/6/8 75/7/8 
f 75/7/8 76/8/8 73/5/8 
f 77/9/9 74/10/9 73/11/9 
f 73/11/9 78/12/9 77/9/9 
f 78/13/10 79/14/10 80/15/10 
f 80/15/10 76/16/10 78/13/10 
f 81/17/11 73/18/11 76/19/11 
f 76/19/11 80/20/11 81/17/11 
f 79/21/12 78/22/12 73/23/12 
f 73/23/12 81/24/12 79/21/12 
f 77/25/13 78/26/13 76/27/13 
f 76/27/13 75/28/13 77/25/13 
usemtl MaterialWhite
f 82/2/1 81/2/1 80/3/1 
f 80/3/1 83/3/1 82/2/1 
f 83/3/2 80/3/2 79/3/2 
f 79/3/2 84/3/2 83/3/2 
f 84/3/14 79/3/14 81/2/14 
f 81/2/14 82/2/14 84/3/14 
f 85/2/15 75/2/15 74/3/15 
f 74/3/15 86/3/15 85/2/15 
f 86/3/7 74/3/7 77/2/7 
f 77/2/16 87/2/16 86/3/16 
f 87/2/6 77/2/6 75/2/6 
f 75/2/6 85/2/6 87/2/6 
f 83/3/17 85/2/17 86/3/17 
f 86/3/17 82/2/17 83/3/17 
f 84/3/17 82/2/17 86/3/17 
f 86/3/17 87/2/17 84/3/17 
f 85/2/17 83/3/17 84/3/17 
f 84/3/17 87/2/17 85/2/17 
# 102 faces

