# 3ds Max Wavefront OBJ Exporter v0.97b - (c)2007 guruware
# File Created: 12.11.2013 13:55:55

mtllib SquareBlock.mtl

#
# object Box008
#

v  -45.5000 64.0000 -4.5000
v  -45.5000 64.0000 -45.5000
v  -4.5000 64.0000 -45.5000
v  -4.5000 64.0000 -4.5000
v  -45.5000 65.0000 -4.5000
v  -4.5000 65.0000 -4.5000
v  -4.5000 65.0000 -45.5000
v  -45.5000 65.0000 -45.5000
# 8 vertices

vn 0.0000 -1.0000 -0.0000
vn 0.0000 1.0000 -0.0000
vn 0.0000 0.0000 1.0000
vn 1.0000 0.0000 -0.0000
vn 0.0000 0.0000 -1.0000
vn -1.0000 0.0000 -0.0000
# 6 vertex normals

vt 1.0000 0.0000 0.0000
vt 1.0000 1.0000 0.0000
vt 0.0000 1.0000 0.0000
vt 0.0000 0.0000 0.0000
# 4 texture coords

g Box008
usemtl MaterialWhitePaint
s 2
f 1/1/1 2/2/1 3/3/1 
f 3/3/1 4/4/1 1/1/1 
s 4
f 5/4/2 6/1/2 7/2/2 
f 7/2/2 8/3/2 5/4/2 
s 8
f 1/4/3 4/1/3 6/2/3 
f 6/2/3 5/3/3 1/4/3 
s 16
f 4/4/4 3/1/4 7/2/4 
f 7/2/4 6/3/4 4/4/4 
s 32
f 3/4/5 2/1/5 8/2/5 
f 8/2/5 7/3/5 3/4/5 
s 64
f 2/4/6 1/1/6 5/2/6 
f 5/2/6 8/3/6 2/4/6 
# 12 faces

#
# object Box009
#

v  -10.5000 40.0000 40.5000
v  -10.5000 40.0000 9.5000
v  10.5000 40.0000 9.5000
v  10.5000 40.0000 40.5000
v  -10.5000 41.0000 40.5000
v  10.5000 41.0000 40.5000
v  10.5000 41.0000 9.5000
v  -10.5000 41.0000 9.5000
# 8 vertices

vn 0.0000 -1.0000 -0.0000
vn 0.0000 1.0000 -0.0000
vn 0.0000 0.0000 1.0000
vn 1.0000 0.0000 -0.0000
vn 0.0000 0.0000 -1.0000
vn -1.0000 0.0000 -0.0000
# 6 vertex normals

vt 1.0000 0.0000 0.0000
vt 1.0000 1.0000 0.0000
vt 0.0000 1.0000 0.0000
vt 0.0000 0.0000 0.0000
# 4 texture coords

g Box009
usemtl MaterialWhitePaint
s 2
f 9/5/7 10/6/7 11/7/7 
f 11/7/7 12/8/7 9/5/7 
s 4
f 13/8/8 14/5/8 15/6/8 
f 15/6/8 16/7/8 13/8/8 
s 8
f 9/8/9 12/5/9 14/6/9 
f 14/6/9 13/7/9 9/8/9 
s 16
f 12/8/10 11/5/10 15/6/10 
f 15/6/10 14/7/10 12/8/10 
s 32
f 11/8/11 10/5/11 16/6/11 
f 16/6/11 15/7/11 11/8/11 
s 64
f 10/8/12 9/5/12 13/6/12 
f 13/6/12 16/7/12 10/8/12 
# 12 faces

#
# object Box010
#

v  14.5000 56.0000 45.5000
v  14.5000 56.0000 4.5000
v  45.5000 56.0000 4.5000
v  45.5000 56.0000 45.5000
v  14.5000 57.0000 45.5000
v  45.5000 57.0000 45.5000
v  45.5000 57.0000 4.5000
v  14.5000 57.0000 4.5000
# 8 vertices

vn 0.0000 -1.0000 -0.0000
vn 0.0000 1.0000 -0.0000
vn 0.0000 0.0000 1.0000
vn 1.0000 0.0000 -0.0000
vn 0.0000 0.0000 -1.0000
vn -1.0000 0.0000 -0.0000
# 6 vertex normals

vt 1.0000 0.0000 0.0000
vt 1.0000 1.0000 0.0000
vt 0.0000 1.0000 0.0000
vt 0.0000 0.0000 0.0000
# 4 texture coords

g Box010
usemtl MaterialWhitePaint
s 2
f 17/9/13 18/10/13 19/11/13 
f 19/11/13 20/12/13 17/9/13 
s 4
f 21/12/14 22/9/14 23/10/14 
f 23/10/14 24/11/14 21/12/14 
s 8
f 17/12/15 20/9/15 22/10/15 
f 22/10/15 21/11/15 17/12/15 
s 16
f 20/12/16 19/9/16 23/10/16 
f 23/10/16 22/11/16 20/12/16 
s 32
f 19/12/17 18/9/17 24/10/17 
f 24/10/17 23/11/17 19/12/17 
s 64
f 18/12/18 17/9/18 21/10/18 
f 21/10/18 24/11/18 18/12/18 
# 12 faces

#
# object Box011
#

v  4.5000 80.0000 -4.5000
v  4.5000 80.0000 -45.5000
v  45.5000 80.0000 -45.5000
v  45.5000 80.0000 -4.5000
v  4.5000 81.0000 -4.5000
v  45.5000 81.0000 -4.5000
v  45.5000 81.0000 -45.5000
v  4.5000 81.0000 -45.5000
# 8 vertices

vn 0.0000 -1.0000 -0.0000
vn 0.0000 1.0000 -0.0000
vn 0.0000 0.0000 1.0000
vn 1.0000 0.0000 -0.0000
vn 0.0000 0.0000 -1.0000
vn -1.0000 0.0000 -0.0000
# 6 vertex normals

vt 1.0000 0.0000 0.0000
vt 1.0000 1.0000 0.0000
vt 0.0000 1.0000 0.0000
vt 0.0000 0.0000 0.0000
# 4 texture coords

g Box011
usemtl MaterialWhitePaint
s 2
f 25/13/19 26/14/19 27/15/19 
f 27/15/19 28/16/19 25/13/19 
s 4
f 29/16/20 30/13/20 31/14/20 
f 31/14/20 32/15/20 29/16/20 
s 8
f 25/16/21 28/13/21 30/14/21 
f 30/14/21 29/15/21 25/16/21 
s 16
f 28/16/22 27/13/22 31/14/22 
f 31/14/22 30/15/22 28/16/22 
s 32
f 27/16/23 26/13/23 32/14/23 
f 32/14/23 31/15/23 27/16/23 
s 64
f 26/16/24 25/13/24 29/14/24 
f 29/14/24 32/15/24 26/16/24 
# 12 faces

#
# object Box012
#

v  5.0000 0.0000 -5.0000
v  45.0000 0.0000 -5.0000
v  45.0000 80.0000 -5.0000
v  5.0000 80.0000 -5.0000
v  45.0000 0.0000 -45.0000
v  45.0000 80.0000 -45.0000
v  5.0000 0.0000 -45.0000
v  5.0000 80.0000 -45.0000
# 8 vertices

vn 0.0000 0.0000 1.0000
vn 1.0000 0.0000 -0.0000
vn 0.0000 0.0000 -1.0000
vn -1.0000 0.0000 -0.0000
# 4 vertex normals

vt 0.0020 0.0050 0.0005
vt 3.9980 0.0050 0.0005
vt 3.9980 9.9850 0.0005
vt 0.0020 9.9850 0.0005
vt 0.0020 0.0050 0.9995
vt 3.9980 0.0050 0.9995
vt 3.9980 9.9850 0.9995
vt 0.0020 9.9850 0.9995
# 8 texture coords

g Box012
usemtl Material__12
s 8
f 33/17/25 34/18/25 35/19/25 
f 35/19/25 36/20/25 33/17/25 
s 16
f 34/21/26 37/22/26 38/23/26 
f 38/23/26 35/24/26 34/21/26 
s 32
f 37/21/27 39/22/27 40/23/27 
f 40/23/27 38/24/27 37/21/27 
s 64
f 39/17/28 33/18/28 36/19/28 
f 36/19/28 40/20/28 39/17/28 
# 8 faces

#
# object Box013
#

v  -45.0000 0.0000 -5.0000
v  -5.0000 0.0000 -5.0000
v  -5.0000 64.0000 -5.0000
v  -45.0000 64.0000 -5.0000
v  -5.0000 0.0000 -45.0000
v  -5.0000 64.0000 -45.0000
v  -45.0000 0.0000 -45.0000
v  -45.0000 64.0000 -45.0000
# 8 vertices

vn 0.0000 0.0000 1.0000
vn 1.0000 0.0000 -0.0000
vn 0.0000 0.0000 -1.0000
vn -1.0000 0.0000 -0.0000
# 4 vertex normals

vt 0.0020 0.0040 0.0005
vt 3.9980 0.0040 0.0005
vt 3.9980 7.9960 0.0005
vt 0.0020 7.9960 0.0005
vt 0.0020 0.0040 0.9995
vt 3.9980 0.0040 0.9995
vt 3.9980 7.9960 0.9995
vt 0.0020 7.9960 0.9995
# 8 texture coords

g Box013
usemtl Material__13
s 8
f 41/25/29 42/26/29 43/27/29 
f 43/27/29 44/28/29 41/25/29 
s 16
f 42/29/30 45/30/30 46/31/30 
f 46/31/30 43/32/30 42/29/30 
s 32
f 45/29/31 47/30/31 48/31/31 
f 48/31/31 46/32/31 45/29/31 
s 64
f 47/25/32 41/26/32 44/27/32 
f 44/27/32 48/28/32 47/25/32 
# 8 faces

#
# object Box014
#

v  -45.0000 0.0000 45.0000
v  -15.0000 0.0000 45.0000
v  -15.0000 48.0000 45.0000
v  -45.0000 48.0000 45.0000
v  -15.0000 0.0000 5.0000
v  -15.0000 48.0000 5.0000
v  -45.0000 0.0000 5.0000
v  -45.0000 48.0000 5.0000
# 8 vertices

vn 0.0000 0.0000 1.0000
vn 1.0000 0.0000 -0.0000
vn 0.0000 0.0000 -1.0000
vn -1.0000 0.0000 -0.0000
# 4 vertex normals

vt 0.0015 0.0030 0.0005
vt 2.9985 0.0030 0.0005
vt 2.9985 5.9970 0.0005
vt 0.0015 5.9970 0.0005
vt 0.0015 0.0030 0.9995
vt 2.9985 0.0030 0.9995
vt 2.9985 5.9970 0.9995
vt 0.0015 5.9970 0.9995
# 8 texture coords

g Box014
usemtl Material__12
s 8
f 49/33/33 50/34/33 51/35/33 
f 51/35/33 52/36/33 49/33/33 
s 16
f 50/37/34 53/38/34 54/39/34 
f 54/39/34 51/40/34 50/37/34 
s 32
f 53/37/35 55/38/35 56/39/35 
f 56/39/35 54/40/35 53/37/35 
s 64
f 55/33/36 49/34/36 52/35/36 
f 52/35/36 56/36/36 55/33/36 
# 8 faces

#
# object Box015
#

v  -10.0000 0.0000 40.0000
v  10.0000 0.0000 40.0000
v  10.0000 40.0000 40.0000
v  -10.0000 40.0000 40.0000
v  10.0000 0.0000 10.0000
v  10.0000 40.0000 10.0000
v  -10.0000 0.0000 10.0000
v  -10.0000 40.0000 10.0000
# 8 vertices

vn 0.0000 0.0000 1.0000
vn 1.0000 0.0000 -0.0000
vn 0.0000 0.0000 -1.0000
vn -1.0000 0.0000 -0.0000
# 4 vertex normals

vt 0.0010 0.0025 0.0005
vt 1.9990 0.0025 0.0005
vt 1.9990 4.9975 0.0005
vt 0.0010 4.9975 0.0005
vt 0.0010 0.0025 0.9995
vt 1.9990 0.0025 0.9995
vt 1.9990 4.9975 0.9995
vt 0.0010 4.9975 0.9995
# 8 texture coords

g Box015
usemtl Material__14
s 8
f 57/41/37 58/42/37 59/43/37 
f 59/43/37 60/44/37 57/41/37 
s 16
f 58/45/38 61/46/38 62/47/38 
f 62/47/38 59/48/38 58/45/38 
s 32
f 61/45/39 63/46/39 64/47/39 
f 64/47/39 62/48/39 61/45/39 
s 64
f 63/41/40 57/42/40 60/43/40 
f 60/43/40 64/44/40 63/41/40 
# 8 faces

#
# object Box016
#

v  15.0000 0.0000 45.0000
v  45.0000 0.0000 45.0000
v  45.0000 56.0000 45.0000
v  15.0000 56.0000 45.0000
v  45.0000 0.0000 5.0000
v  45.0000 56.0000 5.0000
v  15.0000 0.0000 5.0000
v  15.0000 56.0000 5.0000
# 8 vertices

vn 0.0000 0.0000 1.0000
vn 1.0000 0.0000 -0.0000
vn 0.0000 0.0000 -1.0000
vn -1.0000 0.0000 -0.0000
# 4 vertex normals

vt 0.0015 0.0035 0.0005
vt 2.9985 0.0035 0.0005
vt 2.9985 6.9965 0.0005
vt 0.0015 6.9965 0.0005
vt 0.0015 0.0035 0.9995
vt 2.9985 0.0035 0.9995
vt 2.9985 6.9965 0.9995
vt 0.0015 6.9965 0.9995
# 8 texture coords

g Box016
usemtl Material__0
s 8
f 65/49/41 66/50/41 67/51/41 
f 67/51/41 68/52/41 65/49/41 
s 16
f 66/53/42 69/54/42 70/55/42 
f 70/55/42 67/56/42 66/53/42 
s 32
f 69/53/43 71/54/43 72/55/43 
f 72/55/43 70/56/43 69/53/43 
s 64
f 71/49/44 65/50/44 68/51/44 
f 68/51/44 72/52/44 71/49/44 
# 8 faces

#
# object Box017
#

v  -45.5000 48.0000 45.5000
v  -45.5000 48.0000 4.5000
v  -14.5000 48.0000 4.5000
v  -14.5000 48.0000 45.5000
v  -45.5000 49.0000 45.5000
v  -14.5000 49.0000 45.5000
v  -14.5000 49.0000 4.5000
v  -45.5000 49.0000 4.5000
# 8 vertices

vn 0.0000 -1.0000 -0.0000
vn 0.0000 1.0000 -0.0000
vn 0.0000 0.0000 1.0000
vn 1.0000 0.0000 -0.0000
vn 0.0000 0.0000 -1.0000
vn -1.0000 0.0000 -0.0000
# 6 vertex normals

vt 1.0000 0.0000 0.0000
vt 1.0000 1.0000 0.0000
vt 0.0000 1.0000 0.0000
vt 0.0000 0.0000 0.0000
# 4 texture coords

g Box017
usemtl MaterialWhitePaint
s 2
f 73/57/45 74/58/45 75/59/45 
f 75/59/45 76/60/45 73/57/45 
s 4
f 77/60/46 78/57/46 79/58/46 
f 79/58/46 80/59/46 77/60/46 
s 8
f 73/60/47 76/57/47 78/58/47 
f 78/58/47 77/59/47 73/60/47 
s 16
f 76/60/48 75/57/48 79/58/48 
f 79/58/48 78/59/48 76/60/48 
s 32
f 75/60/49 74/57/49 80/58/49 
f 80/58/49 79/59/49 75/60/49 
s 64
f 74/60/50 73/57/50 77/58/50 
f 77/58/50 80/59/50 74/60/50 
# 12 faces

