# 3ds Max Wavefront OBJ Exporter v0.97b - (c)2007 guruware
# File Created: 31.01.2014 14:39:42

mtllib SquareBlock-Cinema.mtl

#
# object Box008
#

v  -45.5000 24.0000 -4.5000
v  -45.5000 24.0000 -45.5000
v  -4.5000 24.0000 -45.5000
v  -4.5000 24.0000 -4.5000
v  -45.5000 25.0000 -4.5000
v  -4.5000 25.0000 -4.5000
v  -4.5000 25.0000 -45.5000
v  -45.5000 25.0000 -45.5000
# 8 vertices

vn 0.0000 -1.0000 -0.0000
vn 0.0000 1.0000 -0.0000
vn 0.0000 0.0000 1.0000
vn 1.0000 0.0000 -0.0000
vn 0.0000 0.0000 -1.0000
vn -1.0000 0.0000 -0.0000
# 6 vertex normals

vt 0.9995 0.0005 0.4833
vt 0.9995 0.9995 0.4833
vt 0.0005 0.9995 0.4833
vt 0.0005 0.0005 0.4833
vt 0.0005 0.0005 0.5167
vt 0.9995 0.0005 0.5167
vt 0.9995 0.9995 0.5167
vt 0.0005 0.9995 0.5167
vt 0.0005 0.4833 0.0005
vt 0.9995 0.4833 0.0005
vt 0.9995 0.5167 0.0005
vt 0.0005 0.5167 0.0005
vt 0.0005 0.4833 0.9995
vt 0.9995 0.4833 0.9995
vt 0.9995 0.5167 0.9995
vt 0.0005 0.5167 0.9995
# 16 texture coords

g Box008
usemtl MaterialWhitePaint
s 2
f 1/1/1 2/2/1 3/3/1 
f 3/3/1 4/4/1 1/1/1 
s 4
f 5/5/2 6/6/2 7/7/2 
f 7/7/2 8/8/2 5/5/2 
s 8
f 1/9/3 4/10/3 6/11/3 
f 6/11/3 5/12/3 1/9/3 
s 16
f 4/13/4 3/14/4 7/15/4 
f 7/15/4 6/16/4 4/13/4 
s 32
f 3/13/5 2/14/5 8/15/5 
f 8/15/5 7/16/5 3/13/5 
s 64
f 2/9/6 1/10/6 5/11/6 
f 5/11/6 8/12/6 2/9/6 
# 12 faces

#
# object Box009
#

v  -10.5000 40.0000 40.5000
v  -10.5000 40.0000 9.5000
v  10.5000 40.0000 9.5000
v  10.5000 40.0000 40.5000
v  -10.5000 41.0000 40.5000
v  10.5000 41.0000 40.5000
v  10.5000 41.0000 9.5000
v  -10.5000 41.0000 9.5000
# 8 vertices

vn 0.0000 -1.0000 -0.0000
vn 0.0000 1.0000 -0.0000
vn 0.0000 0.0000 1.0000
vn 1.0000 0.0000 -0.0000
vn 0.0000 0.0000 -1.0000
vn -1.0000 0.0000 -0.0000
# 6 vertex normals

vt 0.9995 0.0005 0.4833
vt 0.9995 0.9995 0.4833
vt 0.0005 0.9995 0.4833
vt 0.0005 0.0005 0.4833
vt 0.0005 0.0005 0.5167
vt 0.9995 0.0005 0.5167
vt 0.9995 0.9995 0.5167
vt 0.0005 0.9995 0.5167
vt 0.0005 0.4833 0.0005
vt 0.9995 0.4833 0.0005
vt 0.9995 0.5167 0.0005
vt 0.0005 0.5167 0.0005
vt 0.0005 0.4833 0.9995
vt 0.9995 0.4833 0.9995
vt 0.9995 0.5167 0.9995
vt 0.0005 0.5167 0.9995
# 16 texture coords

g Box009
usemtl MaterialWhitePaint
s 2
f 9/17/7 10/18/7 11/19/7 
f 11/19/7 12/20/7 9/17/7 
s 4
f 13/21/8 14/22/8 15/23/8 
f 15/23/8 16/24/8 13/21/8 
s 8
f 9/25/9 12/26/9 14/27/9 
f 14/27/9 13/28/9 9/25/9 
s 16
f 12/29/10 11/30/10 15/31/10 
f 15/31/10 14/32/10 12/29/10 
s 32
f 11/29/11 10/30/11 16/31/11 
f 16/31/11 15/32/11 11/29/11 
s 64
f 10/25/12 9/26/12 13/27/12 
f 13/27/12 16/28/12 10/25/12 
# 12 faces

#
# object Box010
#

v  14.5000 32.0000 45.5000
v  14.5000 32.0000 4.5000
v  45.5000 32.0000 4.5000
v  45.5000 32.0000 45.5000
v  14.5000 33.0000 45.5000
v  45.5000 33.0000 45.5000
v  45.5000 33.0000 4.5000
v  14.5000 33.0000 4.5000
# 8 vertices

vn 0.0000 -1.0000 -0.0000
vn 0.0000 1.0000 -0.0000
vn 0.0000 0.0000 1.0000
vn 1.0000 0.0000 -0.0000
vn 0.0000 0.0000 -1.0000
vn -1.0000 0.0000 -0.0000
# 6 vertex normals

vt 0.9995 0.0005 0.4875
vt 0.9995 0.9995 0.4875
vt 0.0005 0.9995 0.4875
vt 0.0005 0.0005 0.4875
vt 0.0005 0.0005 0.5125
vt 0.9995 0.0005 0.5125
vt 0.9995 0.9995 0.5125
vt 0.0005 0.9995 0.5125
vt 0.0005 0.4875 0.0005
vt 0.9995 0.4875 0.0005
vt 0.9995 0.5125 0.0005
vt 0.0005 0.5125 0.0005
vt 0.0005 0.4875 0.9995
vt 0.9995 0.4875 0.9995
vt 0.9995 0.5125 0.9995
vt 0.0005 0.5125 0.9995
# 16 texture coords

g Box010
usemtl MaterialWhitePaint
s 2
f 17/33/13 18/34/13 19/35/13 
f 19/35/13 20/36/13 17/33/13 
s 4
f 21/37/14 22/38/14 23/39/14 
f 23/39/14 24/40/14 21/37/14 
s 8
f 17/41/15 20/42/15 22/43/15 
f 22/43/15 21/44/15 17/41/15 
s 16
f 20/45/16 19/46/16 23/47/16 
f 23/47/16 22/48/16 20/45/16 
s 32
f 19/45/17 18/46/17 24/47/17 
f 24/47/17 23/48/17 19/45/17 
s 64
f 18/41/18 17/42/18 21/43/18 
f 21/43/18 24/44/18 18/41/18 
# 12 faces

#
# object Box011
#

v  4.5000 10.0000 -4.5000
v  4.5000 10.0000 -45.5000
v  45.5000 10.0000 -45.5000
v  45.5000 10.0000 -4.5000
v  4.5000 11.0000 -4.5000
v  45.5000 11.0000 -4.5000
v  45.5000 11.0000 -45.5000
v  4.5000 11.0000 -45.5000
# 8 vertices

vn 0.0000 -1.0000 -0.0000
vn 0.0000 1.0000 -0.0000
vn 0.0000 0.0000 1.0000
vn 1.0000 0.0000 -0.0000
vn 0.0000 0.0000 -1.0000
vn -1.0000 0.0000 -0.0000
# 6 vertex normals

vt 0.9995 0.0005 0.4875
vt 0.9995 0.9995 0.4875
vt 0.0005 0.9995 0.4875
vt 0.0005 0.0005 0.4875
vt 0.0005 0.0005 0.5125
vt 0.9995 0.0005 0.5125
vt 0.9995 0.9995 0.5125
vt 0.0005 0.9995 0.5125
vt 0.0005 0.4875 0.0005
vt 0.9995 0.4875 0.0005
vt 0.9995 0.5125 0.0005
vt 0.0005 0.5125 0.0005
vt 0.0005 0.4875 0.9995
vt 0.9995 0.4875 0.9995
vt 0.9995 0.5125 0.9995
vt 0.0005 0.5125 0.9995
# 16 texture coords

g Box011
usemtl MaterialWhitePaint
s 2
f 25/49/19 26/50/19 27/51/19 
f 27/51/19 28/52/19 25/49/19 
s 4
f 29/53/20 30/54/20 31/55/20 
f 31/55/20 32/56/20 29/53/20 
s 8
f 25/57/21 28/58/21 30/59/21 
f 30/59/21 29/60/21 25/57/21 
s 16
f 28/61/22 27/62/22 31/63/22 
f 31/63/22 30/64/22 28/61/22 
s 32
f 27/61/23 26/62/23 32/63/23 
f 32/63/23 31/64/23 27/61/23 
s 64
f 26/57/24 25/58/24 29/59/24 
f 29/59/24 32/60/24 26/57/24 
# 12 faces

#
# object Box012
#

v  5.0000 0.0000 -5.0000
v  45.0000 0.0000 -5.0000
v  45.0000 10.0000 -5.0000
v  5.0000 10.0000 -5.0000
v  45.0000 0.0000 -45.0000
v  45.0000 10.0000 -45.0000
v  5.0000 0.0000 -45.0000
v  5.0000 10.0000 -45.0000
# 8 vertices

vn 0.0000 -0.0000 1.0000
vn 1.0000 0.0000 -0.0000
vn 0.0000 0.0000 -1.0000
vn -1.0000 0.0000 -0.0000
# 4 vertex normals

vt -0.0000 -17.5000 0.0000
vt 20.0000 -17.5000 -0.0000
vt 20.0000 -12.5000 -0.0000
vt -0.0000 -12.5000 0.0000
vt -0.0000 -17.5000 1.0000
vt 20.0000 -17.5000 1.0000
vt 20.0000 -12.5000 1.0000
vt -0.0000 -12.5000 1.0000
# 8 texture coords

g Box012
usemtl Material__15
s 8
f 33/65/25 34/66/25 35/67/25 
f 35/67/25 36/68/25 33/65/25 
s 16
f 34/69/26 37/70/26 38/71/26 
f 38/71/26 35/72/26 34/69/26 
s 32
f 37/69/27 39/70/27 40/71/27 
f 40/71/27 38/72/27 37/69/27 
s 64
f 39/65/28 33/66/28 36/67/28 
f 36/67/28 40/68/28 39/65/28 
# 8 faces

#
# object Box013
#

v  -45.0000 0.0000 -5.0000
v  -5.0000 0.0000 -5.0000
v  -5.0000 24.0000 -5.0000
v  -45.0000 24.0000 -5.0000
v  -5.0000 0.0000 -45.0000
v  -5.0000 24.0000 -45.0000
v  -45.0000 0.0000 -45.0000
v  -45.0000 24.0000 -45.0000
# 8 vertices

vn 0.0000 0.0000 1.0000
vn 1.0000 0.0000 -0.0000
vn 0.0000 0.0000 -1.0000
vn -1.0000 0.0000 -0.0000
# 4 vertex normals

vt 0.0020 0.0015 0.0005
vt 3.9980 0.0015 0.0005
vt 3.9980 2.9985 0.0005
vt 0.0020 2.9985 0.0005
vt 0.0020 0.0015 0.9995
vt 3.9980 0.0015 0.9995
vt 3.9980 2.9985 0.9995
vt 0.0020 2.9985 0.9995
# 8 texture coords

g Box013
usemtl Material__13
s 8
f 41/73/29 42/74/29 43/75/29 
f 43/75/29 44/76/29 41/73/29 
s 16
f 42/77/30 45/78/30 46/79/30 
f 46/79/30 43/80/30 42/77/30 
s 32
f 45/77/31 47/78/31 48/79/31 
f 48/79/31 46/80/31 45/77/31 
s 64
f 47/73/32 41/74/32 44/75/32 
f 44/75/32 48/76/32 47/73/32 
# 8 faces

#
# object Box014
#

v  -45.0000 0.0000 45.0000
v  -15.0000 0.0000 45.0000
v  -15.0000 48.0000 45.0000
v  -45.0000 48.0000 45.0000
v  -15.0000 0.0000 5.0000
v  -15.0000 48.0000 5.0000
v  -45.0000 0.0000 5.0000
v  -45.0000 48.0000 5.0000
# 8 vertices

vn 0.0000 0.0000 1.0000
vn 1.0000 0.0000 -0.0000
vn 0.0000 0.0000 -1.0000
vn -1.0000 0.0000 -0.0000
# 4 vertex normals

vt 0.0015 0.0030 0.0005
vt 2.9985 0.0030 0.0005
vt 2.9985 5.9970 0.0005
vt 0.0015 5.9970 0.0005
vt 0.0015 0.0030 0.9995
vt 2.9985 0.0030 0.9995
vt 2.9985 5.9970 0.9995
vt 0.0015 5.9970 0.9995
# 8 texture coords

g Box014
usemtl Material__12
s 8
f 49/81/33 50/82/33 51/83/33 
f 51/83/33 52/84/33 49/81/33 
s 16
f 50/85/34 53/86/34 54/87/34 
f 54/87/34 51/88/34 50/85/34 
s 32
f 53/85/35 55/86/35 56/87/35 
f 56/87/35 54/88/35 53/85/35 
s 64
f 55/81/36 49/82/36 52/83/36 
f 52/83/36 56/84/36 55/81/36 
# 8 faces

#
# object Box015
#

v  -10.0000 0.0000 40.0000
v  10.0000 0.0000 40.0000
v  10.0000 40.0000 40.0000
v  -10.0000 40.0000 40.0000
v  10.0000 0.0000 10.0000
v  10.0000 40.0000 10.0000
v  -10.0000 0.0000 10.0000
v  -10.0000 40.0000 10.0000
# 8 vertices

vn 0.0000 0.0000 1.0000
vn 1.0000 0.0000 -0.0000
vn 0.0000 0.0000 -1.0000
vn -1.0000 0.0000 -0.0000
# 4 vertex normals

vt 0.0010 0.0025 0.0005
vt 1.9990 0.0025 0.0005
vt 1.9990 4.9975 0.0005
vt 0.0010 4.9975 0.0005
vt 0.0010 0.0025 0.9995
vt 1.9990 0.0025 0.9995
vt 1.9990 4.9975 0.9995
vt 0.0010 4.9975 0.9995
# 8 texture coords

g Box015
usemtl Material__0
s 8
f 57/89/37 58/90/37 59/91/37 
f 59/91/37 60/92/37 57/89/37 
s 16
f 58/93/38 61/94/38 62/95/38 
f 62/95/38 59/96/38 58/93/38 
s 32
f 61/93/39 63/94/39 64/95/39 
f 64/95/39 62/96/39 61/93/39 
s 64
f 63/89/40 57/90/40 60/91/40 
f 60/91/40 64/92/40 63/89/40 
# 8 faces

#
# object Box016
#

v  15.0000 0.0000 45.0000
v  45.0000 0.0000 45.0000
v  45.0000 32.0000 45.0000
v  15.0000 32.0000 45.0000
v  45.0000 0.0000 5.0000
v  45.0000 32.0000 5.0000
v  15.0000 0.0000 5.0000
v  15.0000 32.0000 5.0000
# 8 vertices

vn 0.0000 0.0000 1.0000
vn 1.0000 0.0000 -0.0000
vn 0.0000 0.0000 -1.0000
vn -1.0000 0.0000 -0.0000
# 4 vertex normals

vt 0.0015 0.0020 0.0005
vt 2.9985 0.0020 0.0005
vt 2.9985 3.9980 0.0005
vt 0.0015 3.9980 0.0005
vt 0.0015 0.0020 0.9995
vt 2.9985 0.0020 0.9995
vt 2.9985 3.9980 0.9995
vt 0.0015 3.9980 0.9995
# 8 texture coords

g Box016
usemtl Material__14
s 8
f 65/97/41 66/98/41 67/99/41 
f 67/99/41 68/100/41 65/97/41 
s 16
f 66/101/42 69/102/42 70/103/42 
f 70/103/42 67/104/42 66/101/42 
s 32
f 69/101/43 71/102/43 72/103/43 
f 72/103/43 70/104/43 69/101/43 
s 64
f 71/97/44 65/98/44 68/99/44 
f 68/99/44 72/100/44 71/97/44 
# 8 faces

#
# object Box017
#

v  -45.5000 48.0000 45.5000
v  -45.5000 48.0000 4.5000
v  -14.5000 48.0000 4.5000
v  -14.5000 48.0000 45.5000
v  -45.5000 49.0000 45.5000
v  -14.5000 49.0000 45.5000
v  -14.5000 49.0000 4.5000
v  -45.5000 49.0000 4.5000
# 8 vertices

vn 0.0000 -1.0000 -0.0000
vn 0.0000 1.0000 -0.0000
vn 0.0000 0.0000 1.0000
vn 1.0000 0.0000 -0.0000
vn 0.0000 0.0000 -1.0000
vn -1.0000 0.0000 -0.0000
# 6 vertex normals

vt 0.9995 0.0005 0.4833
vt 0.9995 0.9995 0.4833
vt 0.0005 0.9995 0.4833
vt 0.0005 0.0005 0.4833
vt 0.0005 0.0005 0.5167
vt 0.9995 0.0005 0.5167
vt 0.9995 0.9995 0.5167
vt 0.0005 0.9995 0.5167
vt 0.0005 0.4833 0.0005
vt 0.9995 0.4833 0.0005
vt 0.9995 0.5167 0.0005
vt 0.0005 0.5167 0.0005
vt 0.0005 0.4833 0.9995
vt 0.9995 0.4833 0.9995
vt 0.9995 0.5167 0.9995
vt 0.0005 0.5167 0.9995
# 16 texture coords

g Box017
usemtl MaterialWhitePaint
s 2
f 73/105/45 74/106/45 75/107/45 
f 75/107/45 76/108/45 73/105/45 
s 4
f 77/109/46 78/110/46 79/111/46 
f 79/111/46 80/112/46 77/109/46 
s 8
f 73/113/47 76/114/47 78/115/47 
f 78/115/47 77/116/47 73/113/47 
s 16
f 76/117/48 75/118/48 79/119/48 
f 79/119/48 78/120/48 76/117/48 
s 32
f 75/117/49 74/118/49 80/119/49 
f 80/119/49 79/120/49 75/117/49 
s 64
f 74/113/50 73/114/50 77/115/50 
f 77/115/50 80/116/50 74/113/50 
# 12 faces

#
# object Plane002
#

v  30.0000 1.0000 -45.5000
v  43.0000 2.0000 -45.5000
v  44.0000 1.0000 -45.5000
v  44.0000 9.0000 -45.5000
v  43.0000 8.0000 -45.5000
v  30.0000 9.0000 -45.5000
v  31.0000 8.0000 -45.5000
v  31.0000 2.0000 -45.5000
v  30.0000 1.0000 -45.0000
v  44.0000 1.0000 -45.0000
v  44.0000 9.0000 -45.0000
v  30.0000 9.0000 -45.0000
v  43.0000 2.0000 -45.0000
v  31.0000 2.0000 -45.0000
v  31.0000 8.0000 -45.0000
v  43.0000 8.0000 -45.0000
# 16 vertices

vn 0.0000 0.0000 -1.0000
vn -0.0000 0.0000 -1.0000
vn 0.0000 -1.0000 -0.0000
vn 1.0000 0.0000 -0.0000
vn 0.0000 1.0000 -0.0000
vn -0.0000 1.0000 -0.0000
vn -1.0000 0.0000 -0.0000
# 7 vertex normals

vt 7.0000 0.0000 0.5179
vt 0.5000 0.5000 0.5179
vt 0.0000 0.0000 0.5179
vt 0.0000 4.0000 0.5179
vt 0.5000 3.5000 0.5179
vt 7.0000 4.0000 0.5179
vt 6.5000 3.5000 0.5179
vt 6.5000 0.5000 0.5179
vt 7.0000 1.9286 0.0000
vt 7.0000 2.0714 0.0000
vt 0.0000 2.0714 0.0000
vt 0.0000 1.9286 0.0000
vt 3.3750 0.0000 1.0000
vt 3.6250 0.0000 1.0000
vt 3.6250 4.0000 1.0000
vt 3.3750 4.0000 1.0000
vt 7.0000 1.9286 1.0000
vt 7.0000 2.0714 1.0000
vt 0.0000 2.0714 1.0000
vt 0.0000 1.9286 1.0000
vt 3.6250 4.0000 0.0000
vt 3.3750 4.0000 0.0000
vt 3.3750 0.0000 0.0000
vt 3.6250 0.0000 0.0000
vt 6.5000 1.9286 0.1250
vt 6.5000 2.0714 0.1250
vt 0.5000 2.0714 0.1250
vt 0.5000 1.9286 0.1250
vt 3.3750 0.5000 0.0714
vt 3.6250 0.5000 0.0714
vt 3.6250 3.5000 0.0714
vt 3.3750 3.5000 0.0714
vt 6.5000 1.9286 0.8750
vt 6.5000 2.0714 0.8750
vt 0.5000 2.0714 0.8750
vt 0.5000 1.9286 0.8750
vt 3.6250 3.5000 0.9286
vt 3.3750 3.5000 0.9286
vt 3.3750 0.5000 0.9286
vt 3.6250 0.5000 0.9286
# 40 texture coords

g Plane002
usemtl Material__16
s 1
f 81/121/51 82/122/52 83/123/52 
f 84/124/51 85/125/51 86/126/52 
f 87/127/52 81/121/51 86/126/52 
f 83/123/52 82/122/52 84/124/51 
f 82/122/52 81/121/51 88/128/51 
f 81/121/51 87/127/52 88/128/51 
f 86/126/52 85/125/51 87/127/52 
f 84/124/51 82/122/52 85/125/51 
s off
f 89/129/53 81/130/53 83/131/53 
f 83/131/53 90/132/53 89/129/53 
f 90/133/54 83/134/54 84/135/54 
f 84/135/54 91/136/54 90/133/54 
f 91/137/55 84/138/55 86/139/55 
f 86/139/56 92/140/56 91/137/56 
f 92/141/57 86/142/57 81/143/57 
f 81/143/57 89/144/57 92/141/57 
f 93/145/55 82/146/55 88/147/55 
f 88/147/55 94/148/55 93/145/55 
f 94/149/54 88/150/54 87/151/54 
f 87/151/54 95/152/54 94/149/54 
f 95/153/53 87/154/53 85/155/53 
f 85/155/53 96/156/53 95/153/53 
f 96/157/57 85/158/57 82/159/57 
f 82/159/57 93/160/57 96/157/57 
# 24 faces

#
# object Plane004
#

v  45.5000 1.0000 -20.0000
v  45.5000 2.0000 -7.0000
v  45.5000 1.0000 -6.0000
v  45.5000 9.0000 -6.0000
v  45.5000 8.0000 -7.0000
v  45.5000 9.0000 -20.0000
v  45.5000 8.0000 -19.0000
v  45.5000 2.0000 -19.0000
v  45.0000 1.0000 -20.0000
v  45.0000 1.0000 -6.0000
v  45.0000 9.0000 -6.0000
v  45.0000 9.0000 -20.0000
v  45.0000 2.0000 -7.0000
v  45.0000 2.0000 -19.0000
v  45.0000 8.0000 -19.0000
v  45.0000 8.0000 -7.0000
# 16 vertices

vn 1.0000 0.0000 0.0000
vn 0.0000 -1.0000 -0.0000
vn 0.0000 -1.0000 0.0000
vn 0.0000 0.0000 1.0000
vn 0.0000 1.0000 -0.0000
vn 0.0000 0.0000 -1.0000
vn -0.0000 1.0000 0.0000
# 7 vertex normals

vt 7.0000 0.0000 0.5179
vt 0.5000 0.5000 0.5179
vt 0.0000 0.0000 0.5179
vt 0.0000 4.0000 0.5179
vt 0.5000 3.5000 0.5179
vt 7.0000 4.0000 0.5179
vt 6.5000 3.5000 0.5179
vt 6.5000 0.5000 0.5179
vt 3.6250 4.0000 0.0000
vt 3.3750 4.0000 0.0000
vt 3.3750 0.0000 0.0000
vt 3.6250 0.0000 0.0000
vt 3.3750 0.0000 1.0000
vt 3.6250 0.0000 1.0000
vt 3.6250 4.0000 1.0000
vt 3.3750 4.0000 1.0000
vt 3.3750 0.2857 0.1250
vt 3.6250 0.2857 0.1250
vt 3.6250 3.7143 0.1250
vt 3.3750 3.7143 0.1250
vt 3.3750 0.5000 0.9286
vt 3.6250 0.5000 0.9286
vt 3.6250 3.5000 0.9286
vt 3.3750 3.5000 0.9286
vt 3.6250 3.7143 0.8750
vt 3.3750 3.7143 0.8750
vt 3.3750 0.2857 0.8750
vt 3.6250 0.2857 0.8750
vt 3.6250 3.5000 0.0714
vt 3.3750 3.5000 0.0714
vt 3.3750 0.5000 0.0714
vt 3.6250 0.5000 0.0714
# 32 texture coords

g Plane004
usemtl Material__16
s 1
f 97/161/58 98/162/58 99/163/58 
f 100/164/58 101/165/58 102/166/58 
f 103/167/58 97/161/58 102/166/58 
f 99/163/58 98/162/58 100/164/58 
f 98/162/58 97/161/58 104/168/58 
f 97/161/58 103/167/58 104/168/58 
f 102/166/58 101/165/58 103/167/58 
f 100/164/58 98/162/58 101/165/58 
s off
f 105/169/59 97/170/59 99/171/59 
f 99/171/60 106/172/60 105/169/60 
f 106/171/61 99/172/61 100/169/61 
f 100/169/61 107/170/61 106/171/61 
f 107/173/62 100/174/62 102/175/62 
f 102/175/62 108/176/62 107/173/62 
f 108/175/63 102/176/63 97/173/63 
f 97/173/63 105/174/63 108/175/63 
f 109/177/64 98/178/64 104/179/64 
f 104/179/64 110/180/64 109/177/64 
f 110/181/61 104/182/61 103/183/61 
f 103/183/61 111/184/61 110/181/61 
f 111/185/59 103/186/59 101/187/59 
f 101/187/59 112/188/59 111/185/59 
f 112/189/63 101/190/63 98/191/63 
f 98/191/63 109/192/63 112/189/63 
# 24 faces

